<svg xmlns="http://www.w3.org/2000/svg" viewBox="0 0 112.2 112.2" xmlns:v="https://vecta.io/nano"><circle cx="56.1" cy="56.1" r="56.1" fill="#e4405f"/><path d="M69.1 27.8h-26c-8.5 0-15.3 6.9-15.3 15.3v26c0 8.5 6.9 15.3 15.3 15.3h26c8.5 0 15.3-6.9 15.3-15.3v-26c0-8.5-6.8-15.3-15.3-15.3zm12 41.3a12.04 12.04 0 0 1-12 12h-26a12.04 12.04 0 0 1-12-12v-26a12.04 12.04 0 0 1 12-12h26a12.04 12.04 0 0 1 12 12v26zm-25-28.5c-8.5 0-15.5 7-15.5 15.5s7 15.5 15.5 15.5 15.5-7 15.5-15.5-7-15.5-15.5-15.5zm0 27.7c-6.7 0-12.2-5.5-12.2-12.2s5.5-12.2 12.2-12.2 12.2 5.5 12.2 12.2-5.5 12.2-12.2 12.2zM72 35.1c-2.5 0-4.6 2.1-4.6 4.6s2.1 4.6 4.6 4.6 4.6-2.1 4.6-4.6c0-2.6-2.1-4.6-4.6-4.6zm0 5.8c-.7 0-1.3-.6-1.3-1.3s.6-1.3 1.3-1.3 1.3.6 1.3 1.3c-.1.8-.6 1.3-1.3 1.3z" fill="#fff"/></svg>